<svg xmlns:xlink="http://www.w3.org/1999/xlink" xmlns="http://www.w3.org/2000/svg" width="215" height="57" viewBox="0 0 215 57" fill="none"><g clip-path="url(#clip0_3_6)"><script xmlns=""/><path fill-rule="evenodd" clip-rule="evenodd" d="M22.8991 30.8277L20.213 32.574C20.1667 32.414 19.8048 31.3325 19.1271 29.3241C18.4603 27.3156 17.5786 24.7361 16.4764 21.58H6.18085C4.97522 24.9706 4.04446 27.5943 3.39129 29.4565C2.73813 31.3187 2.37617 32.3561 2.30541 32.5768L-0.00244141 31.007C0.294204 30.2511 1.52433 26.9211 3.6825 21.0144C5.85155 15.0939 8.10224 8.8782 10.4319 2.36178H12.669C14.9632 8.8782 17.2193 15.1905 19.4346 21.2986C21.65 27.4067 22.8039 30.5849 22.8964 30.8332L22.8991 30.8277ZM15.4966 18.7853C14.8761 17.0113 14.2229 15.1574 13.5344 13.2206C12.8458 11.2867 12.1219 9.26444 11.3653 7.15391H11.2973C10.7122 8.75405 10.0073 10.7266 9.17996 13.0661C8.35262 15.3946 7.66952 17.2982 7.13066 18.7825L7.14699 18.8046H15.4803L15.4966 18.7825V18.7853ZM39.2854 31.9836H36.5639C36.5748 31.5753 36.5857 30.2318 36.5993 27.9474C36.621 25.6631 36.6319 24.2533 36.6346 23.7153C36.6346 22.9594 36.6292 21.8476 36.6183 20.3771C36.6183 18.8929 36.6129 17.8114 36.602 17.1272C36.5666 15.4553 36.3135 14.2552 35.8454 13.5269C35.3746 12.8013 34.5608 12.4371 33.4015 12.4371C32.7021 12.4371 31.8339 12.6992 30.8024 13.2234C29.7683 13.7476 28.7259 14.418 27.67 15.2318C27.67 15.3919 27.6645 16.2581 27.6536 17.8279C27.6427 19.3977 27.6373 20.8323 27.6373 22.1262C27.6373 23.8147 27.6482 25.8507 27.6727 28.2343C27.7081 30.6208 27.7244 31.8705 27.7244 31.9864H25.0029C25.0029 31.8843 25.0138 30.9987 25.0383 29.3241C25.06 27.6384 25.0736 25.1361 25.0736 21.82C25.0736 20.2916 25.0682 18.5039 25.0573 16.454C25.0573 14.4042 25.041 12.2219 25.0056 9.91001H27.6917L27.6754 12.4178L27.6917 12.462C29.2974 11.2977 30.6364 10.4921 31.7033 10.0397C32.781 9.57343 33.6764 9.34169 34.3894 9.34169C35.859 9.34169 37.0347 9.93208 37.9192 11.1101C38.8146 12.2744 39.2636 13.8745 39.2636 15.9105C39.2636 17.7424 39.2527 19.3288 39.2283 20.6668C39.2174 21.991 39.2119 23.067 39.2119 23.8947C39.2119 25.2189 39.2228 26.877 39.2473 28.8689C39.2827 30.847 39.299 31.8871 39.299 31.9891L39.2854 31.9836ZM56.186 19.5467C56.186 23.1553 56.1806 26.0907 56.1697 28.3612C56.1588 30.629 56.1534 31.8512 56.1534 32.0278C56.0391 32.0416 55.5057 32.094 54.5531 32.1795C53.6006 32.2816 52.3705 32.3312 50.8682 32.3312C49.9265 32.3312 48.9795 32.2209 48.0269 32.0029C47.0744 31.785 46.2525 31.4732 45.5639 31.0649C44.6468 30.527 43.8984 29.7931 43.3269 28.8606C42.7635 27.9309 42.4832 26.8108 42.4832 25.5003C42.4832 24.1181 42.8152 22.9263 43.482 21.9221C44.1596 20.9041 45.0958 20.0819 46.2879 19.4557C47.0336 19.0639 48.0269 18.7135 49.2652 18.4073C50.5171 18.0873 51.9405 17.8472 53.5353 17.6872C53.4672 16.5533 53.2414 15.6208 52.8631 14.8953C52.4848 14.1697 51.9269 13.6152 51.1921 13.2372C50.6858 12.9751 50.1252 12.793 49.5047 12.6909C48.8842 12.5751 48.163 12.5171 47.3357 12.5171C46.8186 12.5171 46.3777 12.5309 46.0103 12.5613C45.6538 12.5916 45.1666 12.6275 44.5461 12.6716L44.821 9.76931C44.9924 9.75551 45.3326 9.73344 45.8361 9.7031C46.3532 9.65895 47.0526 9.63688 47.9371 9.63688C49.2924 9.63688 50.4953 9.81897 51.554 10.1831C52.6208 10.5335 53.5053 11.1074 54.2048 11.9074C54.8579 12.6634 55.3533 13.6014 55.6853 14.7215C56.0173 15.8278 56.1833 17.4334 56.1833 19.5439L56.186 19.5467ZM53.5516 24.8051V22.9291C53.5516 22.1731 53.5462 21.3013 53.5353 20.3109C53.0291 20.3413 52.1473 20.4709 50.8845 20.7027C49.6217 20.9206 48.5603 21.2406 47.7003 21.6627C47.0581 21.969 46.4838 22.4269 45.9776 23.0367C45.485 23.6464 45.2374 24.405 45.2374 25.3044C45.2374 26.2949 45.4496 27.0922 45.8742 27.7046C46.2988 28.3006 46.8784 28.7585 47.6133 29.0786C48.1766 29.3268 48.7944 29.5089 49.472 29.6248C50.1606 29.7269 50.8845 29.7765 51.6411 29.7765C51.8697 29.7765 52.1527 29.771 52.4848 29.7545C52.8168 29.7407 53.1679 29.7269 53.5353 29.7103V28.2702C53.5462 27.4122 53.5516 26.2562 53.5516 24.8023V24.8051ZM88.9912 31.9836H86.15C86.1608 31.1118 86.1717 29.5034 86.1853 27.1611C86.2071 24.8051 86.218 21.8752 86.2207 18.3687H83.1563C81.2839 18.3549 79.8796 18.3466 78.9379 18.3466C77.8003 18.3466 76.4341 18.3549 74.8393 18.3687H72.2566C72.2566 22.4132 72.2621 25.4755 72.2729 27.5529C72.2947 29.6331 72.3138 31.1091 72.3246 31.9809H69.4834C69.4943 31.1091 69.5106 29.5586 69.5351 27.335C69.5569 25.1086 69.5705 21.351 69.5705 16.0567C69.5705 14.4566 69.5596 12.5089 69.5351 10.2107C69.5242 7.9126 69.5051 5.43239 69.4834 2.77009H72.3246C72.3246 4.97993 72.3138 7.15391 72.2893 9.29478C72.2675 11.4191 72.2539 13.4413 72.2539 15.3588C72.3927 15.3588 73.1384 15.367 74.491 15.3808H83.4257C85.1702 15.367 86.101 15.3588 86.2153 15.3588C86.2153 13.4386 86.2044 11.4163 86.1799 9.29478C86.1554 7.17046 86.1445 4.99649 86.1445 2.77009H88.9858C88.9613 4.96614 88.9395 7.50429 88.9177 10.3845C88.9069 13.2648 88.9014 15.6153 88.9014 17.4307C88.9014 21.7069 88.9123 24.9872 88.9368 27.2715C88.9586 29.5393 88.9776 31.1118 88.9885 31.9836H88.9912ZM97.9559 5.67241H94.9269V1.92036H97.9559V5.67241ZM97.8008 31.9836H95.0793C95.0901 31.7519 95.101 30.32 95.1146 27.6853C95.1364 25.0534 95.1473 22.8794 95.15 21.1606C95.15 19.6626 95.1446 18.0183 95.1337 16.2306C95.1337 14.4263 95.1174 12.3185 95.082 9.90449H97.8035C97.779 11.9985 97.7572 13.9628 97.7355 15.7947C97.7246 17.6127 97.7191 19.2349 97.7191 20.6613C97.7191 24.0492 97.73 26.7694 97.7545 28.822C97.7899 30.8718 97.8062 31.9285 97.8062 31.9864L97.8008 31.9836ZM114.495 29.1475L114.288 32.0719H113.341C111.86 32.0719 110.478 31.8981 109.19 31.5477C107.903 31.1836 106.752 30.6539 105.729 29.9559C104.341 28.9958 103.255 27.724 102.474 26.1376C101.693 24.5513 101.303 22.7856 101.303 20.8351C101.303 19.0887 101.66 17.4914 102.37 16.0347C103.081 14.567 104.011 13.3669 105.16 12.4344C106.194 11.5902 107.427 10.9529 108.861 10.5142C110.306 10.0645 111.8 9.83828 113.338 9.83828H114.043L114.182 12.7627H113.648C112.375 12.7627 111.283 12.8647 110.377 13.0689C109.482 13.2593 108.608 13.5793 107.759 14.029C106.624 14.6111 105.72 15.527 105.056 16.7768C104.39 18.0266 104.058 19.3674 104.058 20.7909C104.058 22.4932 104.368 23.925 104.988 25.0892C105.62 26.2397 106.452 27.1253 107.484 27.7515C108.287 28.2454 109.193 28.6013 110.205 28.8192C111.215 29.0372 112.282 29.1475 113.409 29.1475H114.495ZM120.479 31.9836H117.758C117.769 31.7215 117.779 29.7572 117.793 26.0935C117.815 22.4269 117.826 18.6749 117.828 14.8346C117.828 13.1903 117.823 11.1184 117.812 8.61611C117.812 6.11382 117.796 3.24185 117.76 -0.00256348H120.482C120.447 2.57145 120.425 5.56205 120.414 8.96372V15.0277C120.414 16.5258 120.425 19.6681 120.449 24.4519C120.471 29.222 120.485 31.7326 120.485 31.9781L120.479 31.9836ZM132.808 31.5477L131.172 33.4458C128.636 30.1738 126.369 27.3239 124.371 24.8934C122.384 22.4656 121.29 21.1275 121.083 20.8792V20.8351C121.358 20.5151 122.564 18.9729 124.7 16.2085C126.837 13.4303 128.562 11.1543 129.882 9.38031L131.553 11.5626C130.187 13.2344 128.753 15.0029 127.248 16.8651C125.756 18.7135 124.82 19.8695 124.442 20.333V20.355C124.442 20.355 125.28 21.4751 126.956 23.7153C128.644 25.9555 130.595 28.5654 132.81 31.5477H132.808ZM159.696 31.9836H156.975C156.986 31.8236 156.997 30.8056 157.01 28.9296C157.032 27.0536 157.043 25.2851 157.046 23.6271C157.046 22.9732 157.04 21.9028 157.029 20.4185C157.029 18.9204 157.024 17.8003 157.013 17.0582C156.977 15.3119 156.703 14.1062 156.186 13.4358C155.679 12.7682 154.896 12.4316 153.826 12.4316C153.195 12.4316 152.443 12.6275 151.57 13.022C150.71 13.4138 149.733 14.0262 148.641 14.8539V15.2898C148.652 15.5077 148.658 15.7919 148.658 16.1395C148.658 17.3175 148.652 18.5176 148.641 19.7398C148.631 20.9482 148.625 22.1042 148.625 23.2077C148.625 25.6217 148.636 27.6522 148.661 29.2937C148.696 30.938 148.712 31.8319 148.712 31.9781H145.991C145.991 31.8181 146.002 30.938 146.026 29.3379C146.048 27.7377 146.061 25.8479 146.061 23.6657C146.061 22.9401 146.056 21.8393 146.045 20.3716C146.045 18.8873 146.04 17.7976 146.029 17.0996C146.018 16.4595 145.972 15.8498 145.89 15.2677C145.808 14.6856 145.661 14.1918 145.441 13.7834C145.199 13.3338 144.891 12.9999 144.51 12.7792C144.132 12.5475 143.59 12.4316 142.891 12.4288C142.249 12.4288 141.497 12.6689 140.635 13.1489C139.775 13.6152 138.787 14.2911 137.674 15.1767C137.674 15.425 137.668 16.3547 137.657 17.9686C137.647 19.5688 137.641 20.8765 137.641 21.8945C137.641 23.6243 137.652 25.7045 137.676 28.135C137.712 30.549 137.728 31.8291 137.728 31.9754H135.007C135.007 31.8595 135.018 31.0153 135.042 29.4455C135.064 27.8591 135.075 25.241 135.077 21.591C135.077 20.3992 135.072 18.7908 135.061 16.7685C135.061 14.7463 135.045 12.4564 135.009 9.89622H137.696L137.679 12.404L137.696 12.4261C138.466 11.7281 139.429 11.0384 140.589 10.3542C141.759 9.66999 142.793 9.33065 143.688 9.32789C144.812 9.32789 145.749 9.62585 146.494 10.2218C147.251 10.8177 147.79 11.5736 148.113 12.4895H148.149C149.469 11.4577 150.68 10.6715 151.782 10.1335C152.895 9.5955 153.842 9.32789 154.623 9.32513C156.207 9.32513 157.44 9.91553 158.325 11.0936C159.22 12.2578 159.666 13.8359 159.666 15.8278C159.666 17.37 159.655 18.6721 159.631 19.7343C159.62 20.7827 159.615 21.8945 159.615 23.0725C159.615 25.5169 159.626 27.5833 159.65 29.2689C159.685 30.9573 159.702 31.8595 159.702 31.9754L159.696 31.9836ZM176.597 19.5467C176.597 23.1553 176.591 26.0907 176.581 28.3612C176.57 30.629 176.564 31.8512 176.564 32.0278C176.45 32.0416 175.917 32.094 174.964 32.1795C174.011 32.2816 172.781 32.3312 171.279 32.3312C170.337 32.3312 169.39 32.2209 168.438 32.0029C167.485 31.785 166.663 31.4732 165.975 31.0649C165.058 30.527 164.309 29.7931 163.738 28.8606C163.174 27.9309 162.894 26.8108 162.894 25.5003C162.894 24.1181 163.226 22.9263 163.893 21.9221C164.571 20.9041 165.504 20.0819 166.699 19.4557C167.444 19.0639 168.438 18.7135 169.676 18.4073C170.928 18.0873 172.351 17.8472 173.946 17.6872C173.878 16.5533 173.652 15.6208 173.274 14.8953C172.896 14.1697 172.338 13.6152 171.603 13.2372C171.097 12.9751 170.536 12.793 169.916 12.6909C169.295 12.5751 168.574 12.5171 167.747 12.5171C167.229 12.5171 166.789 12.5309 166.421 12.5613C166.065 12.5916 165.577 12.6275 164.957 12.6716L165.232 9.76931C165.403 9.75551 165.743 9.73344 166.247 9.7031C166.764 9.65895 167.464 9.63688 168.348 9.63688C169.703 9.63688 170.906 9.81897 171.965 10.1831C173.032 10.5335 173.916 11.1074 174.616 11.9074C175.269 12.6634 175.764 13.6014 176.096 14.7215C176.428 15.8278 176.594 17.4334 176.594 19.5439L176.597 19.5467ZM173.962 24.8051V22.9291C173.962 22.1731 173.957 21.3013 173.946 20.3109C173.44 20.3413 172.558 20.4709 171.295 20.7027C170.033 20.9206 168.971 21.2406 168.111 21.6627C167.469 21.969 166.895 22.4269 166.389 23.0367C165.896 23.6464 165.648 24.405 165.648 25.3044C165.648 26.2949 165.861 27.0922 166.285 27.7046C166.71 28.3006 167.289 28.7585 168.024 29.0786C168.587 29.3268 169.205 29.5089 169.883 29.6248C170.571 29.7269 171.295 29.7765 172.052 29.7765C172.281 29.7765 172.564 29.771 172.896 29.7545C173.228 29.7407 173.579 29.7269 173.946 29.7103V28.2702C173.957 27.4122 173.962 26.2562 173.962 24.8023V24.8051ZM195.77 31.9836H193.049C193.059 31.5753 193.07 30.2318 193.084 27.9474C193.106 25.6631 193.119 24.2533 193.119 23.7153C193.119 22.9594 193.114 21.8476 193.103 20.3771C193.103 18.8929 193.097 17.8114 193.087 17.1272C193.051 15.4553 192.798 14.2552 192.33 13.5269C191.859 12.8013 191.045 12.4371 189.886 12.4371C189.187 12.4371 188.318 12.6992 187.287 13.2234C186.253 13.7476 185.208 14.418 184.155 15.2318C184.155 15.3919 184.149 16.2581 184.138 17.8279C184.127 19.3977 184.122 20.8323 184.122 22.1262C184.122 23.8147 184.133 25.8507 184.157 28.2343C184.193 30.6208 184.209 31.8705 184.209 31.9864H181.487C181.487 31.8843 181.498 30.9987 181.523 29.3241C181.545 27.6384 181.556 25.1361 181.558 21.82C181.558 20.2916 181.553 18.5039 181.542 16.454C181.542 14.4042 181.526 12.2219 181.49 9.91001H184.176L184.16 12.4178L184.176 12.462C185.782 11.2977 187.121 10.4921 188.188 10.0397C189.266 9.57343 190.161 9.34169 190.874 9.34169C192.344 9.34169 193.519 9.93208 194.404 11.1101C195.299 12.2744 195.746 13.8745 195.746 15.9105C195.746 17.7424 195.735 19.3288 195.71 20.6668C195.699 21.991 195.694 23.067 195.694 23.8947C195.694 25.2189 195.705 26.877 195.729 28.8689C195.765 30.847 195.781 31.8871 195.781 31.9891L195.77 31.9836ZM214.998 31.9836H212.276C212.287 31.5753 212.298 30.2318 212.311 27.9474C212.333 25.6631 212.344 24.2533 212.347 23.7153C212.347 22.9594 212.341 21.8476 212.33 20.3771C212.33 18.8929 212.325 17.8114 212.314 17.1272C212.279 15.4553 212.026 14.2552 211.558 13.5269C211.087 12.8013 210.27 12.4371 209.114 12.4371C208.414 12.4371 207.546 12.6992 206.515 13.2234C205.48 13.7476 204.435 14.418 203.382 15.2318C203.382 15.3919 203.377 16.2581 203.366 17.8279C203.355 19.3977 203.349 20.8323 203.349 22.1262C203.349 23.8147 203.36 25.8507 203.385 28.2343C203.42 30.6208 203.437 31.8705 203.437 31.9864H200.715C200.715 31.8843 200.726 30.9987 200.75 29.3241C200.772 27.6384 200.783 25.1361 200.786 21.82C200.786 20.2916 200.78 18.5039 200.769 16.454C200.769 14.4042 200.753 12.2219 200.718 9.91001H203.404L203.388 12.4178L203.404 12.462C205.01 11.2977 206.349 10.4921 207.415 10.0397C208.493 9.57343 209.389 9.34169 210.102 9.34169C211.571 9.34169 212.747 9.93208 213.631 11.1101C214.527 12.2744 214.973 13.8745 214.973 15.9105C214.973 17.7424 214.962 19.3288 214.938 20.6668C214.927 21.991 214.921 23.067 214.921 23.8947C214.921 25.2189 214.932 26.877 214.957 28.8689C214.992 30.847 215.008 31.8871 215.008 31.9891L214.998 31.9836Z" fill="white"/><path fill-rule="evenodd" clip-rule="evenodd" d="M71.6114 50.7354L73.0701 50.9175C72.8388 51.7837 72.4142 52.4541 71.7937 52.9314C71.1705 53.406 70.3758 53.646 69.4069 53.646C68.1877 53.646 67.2216 53.2653 66.5112 52.5066C65.7955 51.7479 65.439 50.6802 65.439 49.3063C65.439 47.9324 65.8009 46.7819 66.5194 45.9984C67.2433 45.2149 68.1768 44.8204 69.328 44.8204C70.4792 44.8204 71.3528 45.2066 72.055 45.9736C72.7626 46.7406 73.1164 47.8248 73.1164 49.218C73.1164 49.3035 73.1164 49.4332 73.1082 49.6015H66.8977C66.9494 50.5285 67.208 51.2402 67.6733 51.7313C68.1387 52.2252 68.7184 52.4735 69.4124 52.4735C69.9295 52.4735 70.3704 52.3355 70.7378 52.0596C71.1052 51.7865 71.3936 51.3451 71.6086 50.7409L71.6114 50.7354ZM66.9766 48.4207H71.6277C71.5651 47.7117 71.3855 47.1764 71.0943 46.8261C70.6452 46.2743 70.0601 45.9984 69.3471 45.9984C68.6993 45.9984 68.1523 46.2191 67.7114 46.6578C67.2705 47.0964 67.0256 47.6868 66.9766 48.4207ZM78.9894 56.7055L78.8316 55.362C79.1418 55.4475 79.4112 55.4889 79.6399 55.4889C79.9528 55.4889 80.2059 55.4337 80.391 55.3289C80.5815 55.224 80.7339 55.0778 80.8536 54.8847C80.9435 54.744 81.0877 54.3881 81.2837 53.8198C81.3109 53.737 81.3544 53.6239 81.4088 53.4694L78.2492 45.0107H79.7705L81.5068 49.8994C81.73 50.5202 81.9314 51.1713 82.1083 51.8555C82.2716 51.1989 82.4648 50.5588 82.688 49.9298L84.4678 45.008H85.8776L82.7097 53.5963C82.3695 54.5233 82.1055 55.1633 81.9178 55.5137C81.6674 55.9855 81.3789 56.3303 81.055 56.551C80.7285 56.7718 80.342 56.8821 79.893 56.8821C79.6208 56.8821 79.316 56.8214 78.9812 56.7055H78.9894ZM96.9923 50.7354L98.451 50.9175C98.2197 51.7837 97.7951 52.4541 97.1746 52.9314C96.5514 53.406 95.7567 53.646 94.7878 53.646C93.5686 53.646 92.6024 53.2653 91.8921 52.5066C91.1764 51.7479 90.8199 50.6802 90.8199 49.3063C90.8199 47.9324 91.1818 46.7819 91.9003 45.9984C92.6242 45.2149 93.5577 44.8204 94.7089 44.8204C95.8601 44.8204 96.7337 45.2066 97.4386 45.9736C98.1462 46.7406 98.4973 47.8248 98.4973 49.218C98.4973 49.3035 98.4973 49.4332 98.4891 49.6015H92.2786C92.3303 50.5285 92.5888 51.2402 93.0542 51.7313C93.5196 52.2252 94.0993 52.4735 94.7933 52.4735C95.3104 52.4735 95.7512 52.3355 96.1186 52.0596C96.4861 51.7865 96.7745 51.3451 96.9895 50.7409L96.9923 50.7354ZM92.3575 48.4207H97.0086C96.946 47.7117 96.7664 47.1764 96.4752 46.8261C96.0261 46.2743 95.441 45.9984 94.728 45.9984C94.0802 45.9984 93.5332 46.2191 93.0923 46.6578C92.6514 47.0964 92.4065 47.6868 92.3575 48.4207ZM105.971 53.4556L103.42 45.0135H104.879L106.205 49.8884L106.697 51.701C106.719 51.6099 106.863 51.0278 107.127 49.9574L108.453 45.0135H109.903L111.15 49.9105L111.566 51.5244L112.042 49.8939L113.468 45.0135H114.843L112.238 53.4556H110.774L109.449 48.3986L109.125 46.9585L107.44 53.4556H105.965H105.971ZM125.941 50.7354L127.4 50.9175C127.168 51.7837 126.744 52.4541 126.123 52.9314C125.5 53.406 124.705 53.646 123.737 53.646C122.517 53.646 121.551 53.2653 120.841 52.5066C120.125 51.7479 119.769 50.6802 119.769 49.3063C119.769 47.9324 120.131 46.7819 120.849 45.9984C121.573 45.2149 122.507 44.8204 123.658 44.8204C124.809 44.8204 125.683 45.2066 126.385 45.9736C127.092 46.7406 127.446 47.8248 127.446 49.218C127.446 49.3035 127.446 49.4332 127.438 49.6015H121.227C121.279 50.5285 121.538 51.2402 122.003 51.7313C122.468 52.2252 123.048 52.4735 123.742 52.4735C124.259 52.4735 124.7 52.3355 125.067 52.0596C125.435 51.7865 125.723 51.3451 125.938 50.7409L125.941 50.7354ZM121.306 48.4207H125.957C125.895 47.7117 125.715 47.1764 125.424 46.8261C124.975 46.2743 124.39 45.9984 123.677 45.9984C123.029 45.9984 122.482 46.2191 122.041 46.6578C121.6 47.0964 121.355 47.6868 121.306 48.4207ZM138.817 52.4128C138.291 52.8625 137.788 53.1797 137.306 53.3673C136.822 53.5522 136.302 53.6432 135.747 53.6432C134.832 53.6432 134.13 53.417 133.638 52.9645C133.148 52.5121 132.903 51.93 132.903 51.2265C132.903 50.8099 132.993 50.4347 133.18 50.0926C133.365 49.7505 133.608 49.4773 133.91 49.2704C134.212 49.0635 134.549 48.9063 134.928 48.8014C135.202 48.7269 135.621 48.6552 136.179 48.5862C137.32 48.4483 138.161 48.2855 138.7 48.0924C138.705 47.8965 138.708 47.7724 138.708 47.7199C138.708 47.1351 138.574 46.724 138.305 46.4867C137.946 46.1612 137.407 46.0012 136.699 46.0012C136.035 46.0012 135.545 46.1171 135.227 46.3543C134.911 46.5916 134.677 47.0082 134.525 47.6096L133.145 47.4165C133.27 46.8206 133.477 46.3322 133.763 45.9681C134.048 45.5984 134.468 45.3142 135.009 45.1156C135.553 44.9169 136.182 44.8176 136.901 44.8176C137.619 44.8176 138.188 44.9032 138.634 45.0714C139.078 45.2425 139.404 45.4549 139.617 45.7115C139.826 45.9681 139.97 46.2936 140.055 46.6854C140.101 46.9309 140.126 47.3696 140.126 48.0041V49.9105C140.126 51.243 140.156 52.0845 140.215 52.4348C140.275 52.788 140.395 53.1273 140.572 53.4501H139.097C138.953 53.1549 138.855 52.8073 138.817 52.4072V52.4128ZM138.7 49.2152C138.185 49.4304 137.418 49.6098 136.394 49.7587C135.815 49.8443 135.401 49.9381 135.164 50.0429C134.922 50.1477 134.737 50.3022 134.606 50.5092C134.476 50.7133 134.408 50.9368 134.408 51.1878C134.408 51.5713 134.552 51.8886 134.835 52.1424C135.118 52.3934 135.537 52.5231 136.084 52.5231C136.631 52.5231 137.113 52.4045 137.535 52.1617C137.957 51.9189 138.27 51.5879 138.468 51.1713C138.621 50.8485 138.697 50.3712 138.697 49.7422V49.2152H138.7ZM146.508 53.4556V45.0135H147.776V46.2909C148.1 45.6949 148.399 45.2977 148.677 45.1073C148.949 44.9169 149.254 44.8204 149.58 44.8204C150.056 44.8204 150.538 44.9749 151.031 45.2811L150.544 46.6109C150.201 46.4012 149.855 46.2991 149.509 46.2991C149.199 46.2991 148.924 46.3929 148.677 46.5805C148.429 46.7709 148.258 47.0302 148.151 47.3641C147.994 47.8717 147.915 48.429 147.915 49.0332V53.4556H146.505H146.508Z" fill="white"/></g><defs><clipPath id="clip0_3_6"><rect width="215" height="56.8849" fill="white"/></clipPath></defs></svg>