<svg width="164" height="45" viewBox="0 0 164 45" fill="none" xmlns="http://www.w3.org/2000/svg">
<g clip-path="url(#clip0_11_715)">
<path d="M27.3394 4.5158C25.555 4.48926 23.9111 4.49551 22.4078 4.53453C21.448 4.55794 20.6862 5.16661 20.0433 5.81508C16.6639 9.21428 13.321 12.5713 10.0146 15.8863C9.89966 16.0018 9.8422 15.9776 9.8422 15.8137V0.241041C9.8422 0.223035 9.84956 0.205767 9.86267 0.193035C9.87577 0.180303 9.89355 0.17315 9.91208 0.17315C18.7442 0.182514 28.067 0.180954 37.8806 0.168468C40.5363 0.163786 42.7144 1.63631 43.5717 4.14591C43.7736 4.73586 43.873 5.56771 43.8699 6.64147C43.8481 12.8999 43.845 19.1278 43.8605 25.3254C43.8605 25.3608 43.8468 25.3947 43.8223 25.4197C43.7979 25.4448 43.7647 25.4588 43.7301 25.4588H37.6896C37.6445 25.4588 37.622 25.4362 37.622 25.3909C37.6174 18.7502 37.6174 12.3216 37.622 6.10537C37.622 5.37964 37.035 4.79906 36.3152 4.79906C34.5649 4.7975 32.7727 4.79828 30.9386 4.8014C30.6078 4.80375 30.263 4.92782 30.0254 5.16427C23.2091 11.958 16.5 18.6737 9.89811 25.3113C9.67596 25.5347 9.55112 25.8379 9.551 26.1541V31.6626C9.551 31.9265 9.65531 32.1795 9.84099 32.3661C10.0267 32.5527 10.2785 32.6575 10.5411 32.6575L29.2357 32.6552C29.4982 32.6552 29.7501 32.7603 29.9357 32.9473C30.1214 33.1343 30.2257 33.388 30.2257 33.6525V38.6272C30.2257 38.8135 30.2993 38.9921 30.4304 39.1238C30.5615 39.2555 30.7392 39.3295 30.9246 39.3295H37.1561C37.187 39.3295 37.2166 39.3172 37.2385 39.2953C37.2603 39.2733 37.2726 39.2435 37.2726 39.2125V32.8917C37.2726 32.8761 37.2787 32.8612 37.2897 32.8503C37.3006 32.8393 37.3154 32.8331 37.3308 32.8331H43.6928C43.8093 32.8331 43.8668 32.8909 43.8652 33.0064C43.8373 34.8121 43.8396 36.5257 43.8722 38.1473C43.897 39.3693 43.7697 40.3362 43.4902 41.0479C42.6003 43.3187 40.499 44.7748 38.053 44.7725C27.6523 44.7631 16.9745 44.767 6.01941 44.7842C2.92811 44.7889 0.172254 42.3471 0.172254 39.1563C0.176913 28.7246 0.176137 17.685 0.169924 6.03748C0.167595 3.3523 1.74004 1.25237 4.28157 0.402573C4.53006 0.319856 4.78553 0.264451 5.04799 0.236359C5.13807 0.226994 5.18311 0.267573 5.18311 0.358093V19.454C5.18321 19.7958 5.31811 20.1233 5.55816 20.3647L8.45379 23.2746C8.51591 23.3355 8.57803 23.3363 8.64015 23.277C13.3109 18.7072 17.9094 14.0649 22.5173 9.432C24.1177 7.82604 25.8019 6.2154 27.3674 4.58369C27.3729 4.57812 27.3766 4.57104 27.3782 4.56333C27.3797 4.55562 27.3789 4.54764 27.3759 4.54038C27.3729 4.53312 27.3679 4.52691 27.3614 4.52253C27.3549 4.51816 27.3472 4.51582 27.3394 4.5158Z" fill="white"/>
<path d="M50.6345 0.351074H50.2944C50.2429 0.351074 50.2012 0.392999 50.2012 0.444716V44.5033C50.2012 44.555 50.2429 44.5969 50.2944 44.5969H50.6345C50.6859 44.5969 50.7276 44.555 50.7276 44.5033V0.444716C50.7276 0.392999 50.6859 0.351074 50.6345 0.351074Z" fill="white"/>
<path d="M99.0048 14.2979L98.2174 14.3048C97.394 14.312 96.7324 14.9886 96.7396 15.8161L96.7422 16.1204C96.7494 16.9479 97.4227 17.6128 98.2461 17.6056L99.0334 17.5986C99.8568 17.5914 100.518 16.9148 100.511 16.0874L100.509 15.783C100.501 14.9556 99.8281 14.2907 99.0048 14.2979Z" fill="white"/>
<path d="M30.5181 14.7024V25.0873C30.5181 25.1085 30.5098 25.1287 30.4949 25.1436C30.4801 25.1586 30.4599 25.1669 30.4389 25.1669H19.956C19.9403 25.1669 19.9251 25.1622 19.9121 25.1535C19.8991 25.1447 19.889 25.1323 19.883 25.1178C19.877 25.1033 19.8754 25.0873 19.8785 25.0719C19.8815 25.0565 19.889 25.0423 19.9001 25.0312L30.383 14.6463C30.3941 14.6352 30.4082 14.6276 30.4235 14.6246C30.4389 14.6215 30.4548 14.6231 30.4692 14.6291C30.4837 14.6351 30.496 14.6453 30.5047 14.6583C30.5134 14.6714 30.5181 14.6867 30.5181 14.7024Z" fill="white"/>
<path d="M151.001 26.2997C150.244 28.2662 149.172 29.5163 147.057 30.1296C145.144 30.6845 142.731 30.5159 141.046 29.4952C138.621 28.025 137.778 25.4616 137.843 22.5891C137.92 19.0588 139.789 16.0038 143.446 15.484C146.488 15.0486 149.715 15.9054 150.798 19.0682C150.829 19.1571 150.801 19.2204 150.714 19.2578L148.17 20.3394C148.049 20.3909 147.973 20.3526 147.942 20.2247C147.604 18.799 146.542 17.9492 145.1 17.9375C141.408 17.907 140.671 21.5591 141.186 24.5392C141.554 26.6649 143.006 28.0391 145.226 27.8588C146.717 27.7355 147.688 26.9216 148.14 25.4171C148.166 25.3313 148.222 25.3008 148.308 25.3258L150.907 26.1077C151.007 26.1374 151.038 26.2014 151.001 26.2997Z" fill="white"/>
<path d="M133.362 26.9709C134.123 25.4882 134.45 23.9314 134.343 22.3005C134.34 22.249 134.364 22.2256 134.415 22.2302L135.31 22.3098C135.362 22.3145 135.389 22.3434 135.389 22.3965C135.42 24.4316 134.968 26.2061 134.033 27.72C133.989 27.7902 133.994 27.8566 134.047 27.919C134.762 28.743 135.619 29.4828 136.714 29.5296C136.828 29.5343 136.867 29.5913 136.833 29.7005L136.654 30.2975C136.621 30.4036 136.55 30.4528 136.439 30.445C135.128 30.3537 134.361 29.6818 133.467 28.7313C133.389 28.6486 133.31 28.6478 133.229 28.729C131.912 30.0618 130.223 30.6167 128.16 30.3935C126.047 30.1641 124.477 28.7828 124.57 26.5378C124.661 24.3723 126.252 23.1901 127.999 22.2677C128.093 22.2178 128.107 22.1514 128.044 22.0687C127.121 20.8537 126.278 19.6691 126.483 18.0866C126.769 15.872 128.771 15.165 130.72 15.5161C131.927 15.7338 132.829 16.6632 132.905 17.9227C132.966 18.9403 132.759 19.7573 132.286 20.3738C131.683 21.1573 130.852 21.8299 129.793 22.3918C129.695 22.4433 129.681 22.5119 129.749 22.5978L133.178 26.9896C133.189 27.0039 133.204 27.0152 133.221 27.0223C133.237 27.0294 133.256 27.0321 133.274 27.0302C133.292 27.0284 133.31 27.022 133.325 27.0116C133.341 27.0013 133.353 26.9873 133.362 26.9709ZM131.894 18.2107C131.713 16.1318 128.773 15.8322 127.843 17.4287C126.97 18.927 128.153 20.4698 129.008 21.6075C129.031 21.6372 129.063 21.6576 129.099 21.6649C129.135 21.6723 129.172 21.666 129.204 21.6473C130.443 20.9075 132.044 19.9384 131.894 18.2107ZM127.417 29.148C129.285 29.8254 130.998 29.461 132.556 28.0548C132.631 27.9861 132.637 27.9128 132.575 27.8347L128.768 23.0402C128.747 23.0127 128.717 22.9936 128.683 22.9863C128.649 22.979 128.614 22.984 128.584 23.0004C126.97 23.8807 125.295 25.0606 125.721 27.226C125.906 28.1656 126.471 28.8063 127.417 29.148Z" fill="white"/>
<path d="M65.2567 26.6879H59.8498C59.8349 26.6881 59.8204 26.6929 59.8083 26.7017C59.7962 26.7105 59.7871 26.7229 59.7823 26.7371L58.6222 30.1457C58.6174 30.1599 58.6083 30.1722 58.5962 30.181C58.5841 30.1898 58.5696 30.1946 58.5546 30.1948L55.5332 30.2018C55.5215 30.2018 55.51 30.199 55.4996 30.1935C55.4893 30.1881 55.4804 30.1802 55.4737 30.1705C55.4671 30.1608 55.4629 30.1497 55.4615 30.138C55.4601 30.1263 55.4615 30.1145 55.4656 30.1035L60.7118 15.6733C60.717 15.6595 60.7262 15.6477 60.7383 15.6393C60.7504 15.6309 60.7647 15.6265 60.7793 15.6265H64.3692C64.3838 15.6265 64.3981 15.6309 64.4102 15.6393C64.4223 15.6477 64.4315 15.6595 64.4367 15.6733L69.6852 30.1035C69.6893 30.1145 69.6908 30.1263 69.6894 30.138C69.6879 30.1497 69.6837 30.1608 69.6771 30.1705C69.6704 30.1802 69.6616 30.1881 69.6512 30.1935C69.6408 30.199 69.6293 30.2018 69.6176 30.2018L66.5496 30.1948C66.5347 30.1946 66.5202 30.1898 66.5081 30.181C66.496 30.1722 66.4869 30.1599 66.4821 30.1457L65.3243 26.7371C65.3195 26.7229 65.3104 26.7105 65.2983 26.7017C65.2862 26.6929 65.2717 26.6881 65.2567 26.6879ZM60.5347 24.2415C60.5307 24.2535 60.5295 24.2662 60.5313 24.2787C60.5331 24.2912 60.5378 24.3031 60.5451 24.3134C60.5524 24.3237 60.562 24.3321 60.5732 24.3379C60.5843 24.3437 60.5967 24.3468 60.6093 24.3469H64.4856C64.4982 24.3468 64.5106 24.3437 64.5217 24.3379C64.5329 24.3321 64.5425 24.3237 64.5498 24.3134C64.5571 24.3031 64.5618 24.2912 64.5636 24.2787C64.5654 24.2662 64.5643 24.2535 64.5602 24.2415L62.622 18.4006C62.6165 18.3852 62.6064 18.3718 62.593 18.3624C62.5797 18.353 62.5638 18.3479 62.5475 18.3479C62.5311 18.3479 62.5152 18.353 62.5019 18.3624C62.4885 18.3718 62.4784 18.3852 62.4729 18.4006L60.5347 24.2415Z" fill="white"/>
<path d="M72.14 29.8324C71.5095 29.5094 71.1484 28.999 71.0567 28.3014C70.9076 27.1543 71.3673 26.3177 72.4358 25.7918C72.588 25.7169 72.5911 25.6357 72.4452 25.5483C71.7354 25.1301 71.2897 24.5136 71.108 23.6989C70.1016 19.1947 75.1754 18.3613 78.2271 19.2041C78.3249 19.2306 78.3801 19.1932 78.3925 19.0917C78.5998 17.4319 79.9812 16.4018 81.6026 16.5142C81.6368 16.5173 81.6569 16.5361 81.6632 16.5704L82.0103 18.6656C82.0118 18.675 82.0112 18.6847 82.0084 18.6938C82.0057 18.7029 82.001 18.7112 81.9947 18.718C81.9883 18.7248 81.9805 18.73 81.9719 18.7331C81.9633 18.7362 81.9541 18.7372 81.945 18.7359C80.7368 18.6219 79.9859 18.9637 79.6924 19.7612C79.6804 19.7938 79.6789 19.8293 79.6881 19.8626C79.6973 19.8958 79.7167 19.9251 79.7436 19.9462C80.8385 20.8061 81.2423 22.0009 80.955 23.5303C80.4285 26.3162 76.6477 26.7048 74.4882 26.3162C73.992 26.2249 73.561 26.4356 73.3677 26.9295C73.0765 27.6763 73.7753 28.0767 74.402 28.0813C75.7826 28.0907 77.1423 28.0969 78.481 28.1001C80.0069 28.1047 81.556 28.9335 81.74 30.5699C82.2549 35.1771 76.1911 35.2637 73.2721 34.7065C71.7766 34.4209 70.309 33.4657 70.5373 31.7287C70.6506 30.8703 71.1787 30.3053 72.1213 30.0338C72.2968 29.9823 72.3031 29.9152 72.14 29.8324ZM78.0081 22.6665C78.0064 22.1822 77.7935 21.7185 77.4161 21.3773C77.0388 21.0362 76.528 20.8456 75.996 20.8475C75.7326 20.8484 75.472 20.8966 75.229 20.9892C74.9859 21.0818 74.7653 21.2171 74.5796 21.3873C74.394 21.5575 74.2469 21.7593 74.1469 21.9812C74.0469 22.2031 73.9958 22.4408 73.9967 22.6806C73.9983 23.1648 74.2113 23.6286 74.5886 23.9697C74.9659 24.3108 75.4768 24.5014 76.0087 24.4995C76.2721 24.4986 76.5328 24.4505 76.7758 24.3578C77.0188 24.2652 77.2395 24.1299 77.4251 23.9597C77.6108 23.7895 77.7578 23.5877 77.8578 23.3658C77.9579 23.1439 78.0089 22.9063 78.0081 22.6665ZM77.6796 32.6721C78.2481 32.5644 79.287 32.1875 79.28 31.4524C79.2731 30.7478 78.5625 30.5722 77.9965 30.5628C76.591 30.541 75.2732 30.5418 74.0432 30.5652C73.3677 30.5769 72.5779 31.2464 73.0648 31.9324C73.8569 33.0467 76.4753 32.9016 77.6796 32.6721Z" fill="white"/>
<path d="M109.723 29.0362C108.54 30.4221 106.485 30.6913 104.812 30.2302C103.661 29.9118 102.982 29.2212 102.774 28.1583C102.397 26.241 103.454 24.8598 105.246 24.4407C106.518 24.1442 107.887 23.8594 109.353 23.5863C109.488 23.5597 109.554 23.4778 109.551 23.3404C109.53 22.0763 108.988 21.3646 107.925 21.2054C106.76 21.0322 105.709 21.6455 105.367 22.8254C105.36 22.8489 105.348 22.8708 105.333 22.8898C105.317 22.9088 105.298 22.9245 105.277 22.9361C105.255 22.9476 105.231 22.9547 105.207 22.957C105.182 22.9594 105.157 22.9568 105.134 22.9495L102.793 22.2191C102.702 22.1925 102.671 22.134 102.699 22.0435C103.505 19.3864 106.077 18.7052 108.602 18.951C110.829 19.1687 112.539 20.4469 112.565 22.8746C112.581 24.3182 112.584 25.9008 112.574 27.6222C112.57 28.376 113.425 28.3597 113.991 28.2145C114.034 28.2036 114.054 28.2207 114.051 28.266L113.893 30.0756C113.89 30.1193 113.867 30.149 113.825 30.1646C112.53 30.6398 110.564 30.5298 109.926 29.0667C109.874 28.9496 109.807 28.9395 109.723 29.0362ZM106.839 28.1911C108.681 28.3503 109.588 27.4981 109.56 25.6347C109.558 25.5395 109.511 25.4997 109.418 25.5153C108.466 25.6713 107.561 25.861 106.704 26.0842C105.322 26.4447 105.523 28.0764 106.839 28.1911Z" fill="white"/>
<path d="M118.794 20.9825C119.608 19.2797 121.039 18.6258 123.088 19.0207C123.155 19.0333 123.215 19.0715 123.255 19.1273C123.295 19.1831 123.312 19.2523 123.302 19.3203L122.978 21.5982C122.963 21.7105 122.901 21.7511 122.792 21.7199C121.366 21.3219 119.812 21.6824 119.174 23.155C118.978 23.6076 118.888 24.2568 118.904 25.1027C118.937 26.8008 118.939 28.4621 118.911 30.0868C118.909 30.1617 118.871 30.1992 118.797 30.1992H115.952C115.875 30.1992 115.836 30.1602 115.836 30.0821V19.2548C115.836 19.2237 115.848 19.194 115.87 19.172C115.892 19.1501 115.922 19.1377 115.952 19.1377H118.41C118.497 19.1377 118.544 19.1814 118.552 19.2688L118.697 20.9637C118.707 21.0933 118.74 21.0995 118.794 20.9825Z" fill="white"/>
<path d="M163.894 25.2382C163.899 26.6011 163.364 27.91 162.409 28.877C161.453 29.8441 160.154 30.39 158.798 30.3948L157.801 30.3982C156.445 30.403 155.143 29.8662 154.18 28.9059C153.218 27.9456 152.675 26.6405 152.67 25.2776L152.666 24.1024C152.661 22.7396 153.196 21.4307 154.151 20.4636C155.107 19.4966 156.405 18.9507 157.762 18.9459L158.759 18.9424C160.115 18.9377 161.417 19.4745 162.379 20.4348C163.342 21.3951 163.885 22.7002 163.89 24.063L163.894 25.2382ZM158.578 21.2454C155.887 21.0066 155.431 23.7948 155.785 25.7894C156.03 27.1753 156.758 27.947 157.968 28.1047C159.389 28.2919 160.444 27.3321 160.71 25.9485C161.031 24.2887 160.854 21.449 158.578 21.2454Z" fill="white"/>
<path d="M91.0185 28.6218C90.7693 28.9753 90.5247 29.3405 90.1682 29.591C88.3325 30.8973 84.8778 30.8458 83.8179 28.4649C83.5523 27.8687 83.4265 26.9768 83.4405 25.7891C83.4685 23.4231 83.4708 21.2522 83.4475 19.2763C83.4459 19.1842 83.491 19.1382 83.5826 19.1382H86.4223C86.439 19.1382 86.4556 19.1415 86.471 19.148C86.4864 19.1545 86.5004 19.164 86.5121 19.176C86.5238 19.188 86.533 19.2022 86.5392 19.2178C86.5454 19.2335 86.5484 19.2501 86.5481 19.2669C86.5372 21.5549 86.5388 23.8484 86.5528 26.1473C86.5621 27.5028 87.6197 28.1582 88.8567 27.9569C90.4035 27.7064 90.9253 26.4657 90.9183 25.0236C90.9106 23.2163 90.909 21.2951 90.9137 19.2599C90.9137 19.1788 90.9541 19.1382 91.0348 19.1382H93.8815C93.9592 19.1382 93.998 19.1772 93.998 19.2552V30.0522C93.998 30.1505 93.9499 30.1996 93.8536 30.1996H91.4611C91.3089 30.1996 91.2297 30.1232 91.2235 29.9702L91.1699 28.6663C91.1637 28.5008 91.1132 28.486 91.0185 28.6218Z" fill="white"/>
<path d="M100.099 19.1382H97.1542C97.1144 19.1382 97.082 19.1707 97.082 19.2108V30.1247C97.082 30.1648 97.1144 30.1973 97.1542 30.1973H100.099C100.139 30.1973 100.171 30.1648 100.171 30.1247V19.2108C100.171 19.1707 100.139 19.1382 100.099 19.1382Z" fill="white"/>
</g>
<defs>
<clipPath id="clip0_11_715">
<rect width="164" height="44.9481" fill="white"/>
</clipPath>
</defs>
</svg>
