<svg width="1540" height="857" viewBox="0 0 1540 857" fill="none" xmlns="http://www.w3.org/2000/svg">
  <path d="M521.096 207.147C539.619 205.568 557.672 203.941 575.737 202.457C594.301 200.931 612.877 199.556 631.446 198.094C645.374 196.998 659.303 195.919 673.224 194.742C686.812 193.593 700.39 192.33 713.971 191.117C735.339 189.207 756.7 187.213 778.077 185.42C789.345 184.475 800.653 184.001 811.925 183.096C830.324 181.618 848.709 179.975 867.099 178.377C883.172 176.981 899.235 175.466 915.315 174.155C940.175 172.128 965.049 170.263 989.912 168.269C1011.13 166.567 1032.35 164.787 1053.56 163.031C1080.74 160.781 1107.92 158.514 1135.1 156.264C1160.29 154.178 1185.49 152.12 1210.68 150.022C1245.31 147.138 1279.92 143.845 1314.6 141.682C1320.88 141.29 1327.73 144.874 1333.83 147.678C1361.6 160.434 1387.54 176.415 1412.75 193.597C1415.5 195.471 1418.33 197.236 1421.2 198.937C1424.59 200.956 1425.23 203 1421.87 205.762C1411.58 214.202 1401.49 222.886 1391.11 231.21C1371.73 246.744 1351.62 261.24 1329.77 273.149C1326.84 274.747 1323.28 275.854 1319.96 275.975C1303.33 276.581 1286.68 276.758 1270.04 277.133C1241.41 277.778 1212.79 278.401 1184.17 279.144C1161.88 279.723 1139.6 280.469 1117.31 281.144C1095.52 281.803 1073.73 282.464 1051.95 283.129C1030.16 283.795 1008.37 284.466 986.582 285.135C964.96 285.8 943.339 286.455 921.718 287.136C900.929 287.79 880.142 288.484 859.354 289.139C837.9 289.815 816.446 290.543 794.989 291.104C777.849 291.552 760.7 291.691 743.56 292.133C720.603 292.726 697.65 293.469 674.696 294.164C653.574 294.803 632.453 295.466 611.331 296.111C588.877 296.797 566.422 297.466 543.968 298.155C523.013 298.799 502.059 299.468 481.104 300.112C458.65 300.803 436.195 301.46 413.741 302.165C393.785 302.792 373.834 303.566 353.875 304.092C324.757 304.86 295.633 305.404 266.514 306.157C244.724 306.72 222.935 307.384 201.151 308.154C187.69 308.63 174.24 309.406 160.783 310.006C158.367 310.114 155.942 310.021 152.041 310.021C153.879 307.01 154.815 305.208 155.998 303.584C163.406 293.413 169.63 282.704 172.214 270.169C173.889 262.047 172.245 254.285 170.207 246.521C169.615 244.266 168.569 242.033 168.521 239.773C168.496 238.594 170.092 236.428 171.119 236.324C183.361 235.081 195.636 234.172 207.898 233.118C225.957 231.565 244.01 229.925 262.071 228.398C275.827 227.235 289.593 226.202 303.353 225.089C322.579 223.534 341.803 221.969 361.027 220.388C378.266 218.97 395.506 217.557 412.741 216.081C430.469 214.562 448.184 212.891 465.917 211.432C480.669 210.218 495.438 209.226 510.198 208.11C513.679 207.847 517.153 207.48 521.096 207.147Z" fill="black"/>
  <path d="M1192.17 352.332C1167.64 370.891 1141.76 386.517 1114.06 399.061C1096.02 407.233 1078.13 415.84 1059.67 422.956C1040.29 430.429 1020.49 436.978 1000.54 442.802C975.781 450.03 950.911 457.183 925.682 462.388C894.912 468.737 863.8 473.611 832.68 478.015C809.815 481.251 786.732 483.178 763.683 484.799C746.435 486.012 729.088 485.895 711.782 486.198C702.634 486.358 693.453 486.587 684.335 486.023C656.461 484.297 628.595 482.381 600.753 480.205C566.452 477.526 532.81 470.6 499.637 461.967C475.686 455.735 452.168 447.625 428.819 439.331C389.582 425.393 353.074 405.81 318.4 382.892C306.343 374.923 295.107 365.711 283.518 357.038C282.89 356.568 282.461 355.833 281.252 354.414C283.489 353.88 285.063 353.209 286.652 353.169C303.126 352.755 319.605 352.552 336.076 352.071C350.871 351.638 365.659 350.988 380.445 350.313C385.691 350.074 387.961 352.255 385.94 357.185C383.69 362.673 380.466 367.79 377.393 372.905C373.963 378.615 373.994 379.439 379.435 382.73C409.504 400.921 441.475 414.49 475.174 424.676C505.783 433.927 536.929 440.056 568.509 443.594C591.269 446.143 614.339 447.048 637.253 446.827C664.78 446.562 692.018 442.3 718.355 433.994C734.95 428.76 750.567 421.105 763.354 408.939C773.864 398.94 781.791 386.906 786.55 373.23C789.806 363.872 791.771 354.034 793.841 344.31C794.551 340.973 795.57 339.217 799.117 339.121C808.596 338.863 818.068 338.369 827.547 338.121C855.331 337.393 883.117 336.788 910.9 336.042C932.358 335.465 953.812 334.731 975.268 334.096C998.72 333.402 1022.17 332.715 1045.62 332.075C1059.43 331.698 1073.24 331.424 1087.05 331.092C1114.84 330.423 1142.62 329.835 1170.41 329.034C1184.53 328.627 1198.65 327.803 1212.77 327.251C1214.45 327.185 1216.16 327.645 1217.85 327.862C1218.13 328.457 1218.41 329.052 1218.69 329.648C1209.94 337.129 1201.18 344.611 1192.17 352.332Z" fill="black"/>
  <path d="M1152.76 73.3094C1171.42 82.628 1188.67 93.4265 1205.58 107.219C1202.32 107.994 1200.2 108.795 1198.03 108.972C1168.03 111.43 1138.03 113.861 1108.03 116.176C1081.01 118.261 1053.96 120.039 1026.95 122.241C997.451 124.646 967.992 127.541 938.492 129.919C917.776 131.59 897.006 132.594 876.283 134.187C854.07 135.895 831.883 137.943 809.684 139.844C801.897 140.51 794.108 141.162 786.323 141.853C782.963 142.152 782.351 139.827 781.46 137.325C778.177 128.103 775.242 118.699 771.159 109.832C763.679 93.5844 752.188 80.44 736.857 71.179C722.034 62.2256 705.813 56.4781 688.611 54.3527C675.26 52.7033 661.788 51.4959 648.347 51.228C609.018 50.4442 570.439 55.7351 532.245 65.3191C499.155 73.6227 467.128 84.7005 436.352 99.1596C410.877 111.128 386.542 125.249 364.64 143.218C361.103 146.119 361.009 148.558 363.537 152.038C367.221 157.109 371.247 162.095 373.909 167.697C376.415 172.969 375.594 173.648 369.887 174.146C353.821 175.549 337.74 176.791 321.672 178.172C307.923 179.354 294.187 180.691 280.436 181.844C277.359 182.102 274.241 181.882 270.125 181.882C272.451 179.015 274.044 176.525 276.131 174.561C298.323 153.668 321.17 133.516 346.963 117.122C365.491 105.345 384.053 93.4732 403.441 83.2381C422.542 73.1548 442.482 64.5476 462.451 56.2488C491.534 44.1623 521.62 34.827 552.112 27.0563C589.883 17.4307 628.297 11.1982 666.932 5.91941C715.832 -0.761961 764.912 0.394748 814.008 0.0138268C853.926 -0.295865 893.321 4.64856 932.795 9.64221C966.409 13.8947 999.485 20.7485 1032.18 29.2048C1055.17 35.153 1077.81 42.7508 1100.16 50.8513C1117.94 57.2967 1135.05 65.6174 1152.76 73.3094Z" fill="black"/>
  <path d="M975.36 844.048C975.093 841.88 974.699 839.862 975.187 838.087C983.707 807.106 992.311 776.149 1000.95 745.2C1005.6 728.525 1010.36 711.878 1015.05 695.214C1015.64 693.132 1016.29 691.048 1016.63 688.919C1017.38 684.095 1015.35 680.647 1010.66 679.369C999.862 676.426 988.924 678.235 984.915 693.167C978.398 717.444 971.734 741.682 964.971 765.891C958.118 790.424 950.99 814.881 944.18 839.426C943.048 843.507 941.063 845.166 936.845 845.143C915.347 845.027 893.848 845.121 872.349 845.074C866.604 845.061 865.84 844.002 867.369 838.526C873.814 815.437 880.33 792.367 886.75 769.27C893.927 743.449 901.047 717.611 908.148 691.769C910.268 684.051 908.146 680.177 900.279 678.833C887.865 676.713 879.94 681.164 876.728 692.983C868.565 723.024 860.124 752.988 851.852 782.999C846.588 802.096 841.346 821.201 836.296 840.355C835.406 843.73 833.742 845.084 830.414 845.079C807.415 845.046 784.416 845.042 761.418 845.088C756.946 845.096 756.597 842.935 757.646 839.265C765.745 810.932 773.785 782.581 781.76 754.213C788.021 731.945 793.92 709.572 800.432 687.379C806.02 668.335 820.033 656.819 837.437 649.256C853.995 642.06 871.771 639.59 889.635 639.316C905.182 639.078 920.817 640.964 934.584 648.84C941.184 652.616 946.424 658.766 952.413 663.955C958.416 660.316 964.859 655.444 972.043 652.234C994.496 642.2 1018.13 638.081 1042.67 640.856C1052.87 642.01 1063.23 643.292 1073.02 646.195C1093.23 652.187 1100.91 667.427 1095.15 687.82C1088.59 711.051 1081.87 734.239 1075.4 757.494C1068.47 782.349 1061.97 807.324 1054.86 832.124C1050.5 847.318 1053.04 844.957 1038.01 845.071C1019.35 845.212 1000.68 845.128 982.017 845.068C979.892 845.061 977.769 844.575 975.36 844.048Z" fill="black"/>
  <path d="M220.699 842.223C226.446 821.164 232.164 800.471 237.902 779.783C245.863 751.078 253.899 722.394 261.779 693.667C264.758 682.806 260.77 677.957 249.431 678.147C239.539 678.312 233.972 682.924 231.134 693.339C225.053 715.657 219.099 738.01 212.877 760.289C205.535 786.581 197.876 812.785 190.583 839.09C189.323 843.635 187.036 845.198 182.463 845.164C161.303 845.007 140.14 845.117 118.979 845.087C112.548 845.078 112.057 844.25 113.815 838.064C120.684 813.888 127.575 789.719 134.305 765.504C141.079 741.128 147.643 716.694 154.359 692.302C156.84 683.293 154.452 679.228 145.17 678.373C133.8 677.325 125.832 681.858 122.932 694.135C119.721 707.73 115.407 721.063 111.633 734.527C107.187 750.395 102.737 766.262 98.4118 782.163C93.3022 800.948 88.1907 819.735 83.3838 838.598C82.1936 843.268 80.1506 845.227 75.1946 845.181C53.8683 844.983 32.5391 845.122 11.2111 845.084C4.17364 845.072 2.84143 843.121 4.84992 836.069C12.7377 808.374 20.7079 780.702 28.5022 752.98C34.4467 731.838 40.0235 710.592 46.0365 689.47C52.0601 668.311 67.1952 655.767 86.8544 648.073C102.684 641.877 119.404 639.41 136.263 639.319C148.863 639.25 161.45 640.683 173.532 645.235C182.611 648.655 189.802 654.134 195.438 661.864C196.222 662.939 196.857 664.123 197.752 665.564C215.038 651.018 234.474 644.486 255.208 641.637C278.053 638.499 300.769 639.288 322.685 647.266C338.791 653.129 345.99 665.949 342.348 682.885C339.308 697.026 335.291 710.967 331.434 724.921C323.054 755.239 314.517 785.514 306.005 815.796C303.708 823.97 301.177 832.08 298.943 840.27C297.993 843.752 295.994 845.117 292.469 845.107C270.141 845.046 247.813 845.128 225.486 844.971C223.878 844.96 222.281 843.42 220.699 842.223Z" fill="black"/>
  <path d="M548.828 653.143C549.949 653.912 550.753 654.504 551.551 655.103C564.345 664.71 566.726 671.803 562.449 687.012C552.857 721.131 543.3 755.26 533.757 789.392C531.878 796.116 530.076 802.862 528.33 809.621C524.994 822.528 515.945 830.263 504.402 835.336C482.888 844.791 460.301 848.845 436.785 848.167C424.635 847.817 412.463 848.319 400.309 848.054C382.628 847.67 365.644 844.069 349.752 836.015C338.047 830.083 333.463 821.171 336.764 808.469C341.995 788.341 347.771 768.354 353.394 748.329C359.872 725.26 366.32 702.181 373.02 679.177C375.327 671.256 381.557 666.201 387.967 661.662C402.893 651.093 420.201 646.793 437.81 643.713C467.595 638.501 497.415 637.821 526.968 645.238C534.331 647.086 541.338 650.354 548.828 653.143ZM459.863 775.461C462.288 766.29 464.601 757.089 467.159 747.956C472.994 727.121 478.719 706.25 484.926 685.525C490.017 668.531 482.126 667.572 470.624 668.17C460.668 668.688 453.465 673.773 450.441 682.56C448.817 687.28 447.38 692.07 446.016 696.874C437.473 726.974 428.967 757.085 420.466 787.198C418.702 793.445 416.79 799.663 415.363 805.988C414.464 809.973 414.587 813.968 418.895 816.497C431.627 823.971 448.58 816.926 452.285 802.69C454.59 793.834 457.202 785.058 459.863 775.461Z" fill="black"/>
  <path d="M1137.5 847.514C1128.05 845.929 1118.71 845.499 1110.13 842.722C1093.74 837.414 1086.72 825.676 1090.5 808.974C1094.94 789.358 1100.36 769.905 1106.53 750.764C1110.13 739.616 1119.72 732.965 1130.14 728.283C1149.12 719.76 1169.22 715.242 1189.7 712.077C1200.88 710.349 1211.96 707.977 1223.11 706.034C1226.99 705.356 1229.37 703.489 1230.29 699.537C1231.91 692.568 1233.91 685.686 1235.46 678.702C1236.79 672.65 1234.17 669.507 1227.96 669.165C1226.46 669.083 1224.96 669.141 1223.46 669.105C1206.59 668.698 1207.07 670.918 1202.37 682.726C1201.61 684.629 1198.67 686.744 1196.61 686.877C1181.02 687.888 1165.39 688.408 1149.77 689.131C1144.79 689.362 1139.82 689.841 1134.84 690.029C1131.02 690.173 1130.16 688.353 1130.89 684.601C1134.81 664.394 1148.1 653.799 1166.78 647.796C1186.06 641.603 1205.91 639.517 1225.86 639.331C1247.84 639.127 1269.74 641.301 1290.79 648.58C1298.4 651.21 1304.88 655.544 1309.82 661.788C1314.62 667.85 1314.96 675.019 1313.01 682.249C1308.8 697.831 1304.48 713.381 1300.14 728.925C1291.18 760.979 1282.16 793.015 1273.22 825.072C1271.79 830.199 1270.55 835.382 1269.33 840.565C1268.61 843.625 1266.85 844.99 1263.7 845.08C1254.38 845.344 1245.08 845.883 1235.77 846.079C1215.3 846.511 1194.82 846.815 1174.35 847.137C1162.22 847.328 1150.09 847.454 1137.5 847.514ZM1178.36 821.104C1191.58 820.957 1197.32 816.636 1200.99 803.799C1206.28 785.234 1211.53 766.656 1216.68 748.049C1217.95 743.471 1218.75 738.762 1219.95 733.24C1207.43 735.704 1195.27 735.937 1184.79 742.469C1182.44 743.937 1180.11 746.665 1179.35 749.276C1173.53 769.08 1167.95 788.959 1162.62 808.902C1160.35 817.427 1163.25 820.85 1171.91 821.077C1173.74 821.126 1175.58 821.098 1178.36 821.104Z" fill="black"/>
  <path d="M681.161 668.957C674.606 670.969 672.826 676.248 671.336 681.593C663.513 709.651 655.837 737.751 647.982 765.8C641.295 789.677 634.431 813.505 627.651 837.356C625.48 844.993 625.384 845.096 617.352 845.1C596.522 845.111 575.692 845.127 554.863 845.083C548.065 845.069 547.707 844.306 549.556 837.728C559.06 803.914 568.443 770.066 577.93 736.247C584 714.611 590.218 693.016 596.289 671.38C598.402 663.85 600.312 656.262 602.238 648.681C603.251 644.695 605.586 643.058 609.789 643.066C655.948 643.161 702.109 642.962 748.265 643.328C754.738 643.379 761.456 645.333 767.591 647.648C776.409 650.975 780.308 658.389 780.92 667.621C781.722 679.738 777.881 690.987 774.174 702.199C773.615 703.889 771 705.802 769.155 706.01C760.578 706.977 751.943 707.503 743.317 707.96C728.868 708.724 714.411 709.331 699.957 709.97C695.823 710.152 694.614 708.171 695.77 704.288C697.954 696.948 700.207 689.619 702.077 682.196C704.607 672.155 701.721 668.41 691.475 668.187C688.174 668.115 684.861 668.606 681.161 668.957Z" fill="black"/>
  <path d="M1502.77 766.876C1496.26 790.529 1489.79 813.772 1483.48 837.062C1481.42 844.688 1481.24 845.088 1473.45 845.096C1452.46 845.117 1431.46 845.12 1410.46 845.093C1403.17 845.084 1402.73 844.376 1404.77 837.202C1412.72 809.345 1420.67 781.49 1428.55 753.614C1433.03 737.756 1437.5 721.895 1441.68 705.956C1442.82 701.582 1445 700.033 1449.38 700.059C1471.04 700.189 1492.71 700.087 1514.37 700.136C1520.61 700.149 1521.2 701 1519.56 706.864C1514 726.74 1508.43 746.612 1502.77 766.876Z" fill="black"/>
  <path d="M1408.77 721.932C1398.87 757.418 1389.05 792.504 1379.27 827.602C1378.06 831.922 1377.03 836.294 1376.03 840.666C1375.32 843.784 1373.38 845.064 1370.3 845.062C1347.48 845.047 1324.67 845.037 1301.85 845.079C1297.67 845.087 1297.13 842.711 1298.01 839.481C1300.72 829.532 1303.55 819.614 1306.31 809.676C1313.16 784.993 1319.95 760.294 1326.85 735.625C1329.72 725.37 1332.92 715.207 1335.73 704.937C1336.7 701.378 1338.72 700.109 1342.19 700.115C1364.67 700.158 1387.15 700.163 1409.63 700.113C1413.86 700.104 1414.88 701.885 1413.61 705.762C1411.89 710.976 1410.43 716.274 1408.77 721.932Z" fill="black"/>
  <path d="M1360.1 643.108C1381.55 643.107 1402.53 643.092 1423.5 643.117C1430.52 643.126 1430.95 643.78 1428.93 650.694C1426.83 657.879 1424.63 665.039 1422.72 672.272C1421.61 676.477 1419.29 678.184 1414.88 678.156C1393.07 678.014 1371.26 678.119 1349.45 678.079C1343.63 678.069 1343.29 677.457 1344.79 672.049C1346.98 664.199 1349.31 656.376 1351.06 648.428C1352.2 643.288 1355.54 642.889 1360.1 643.108Z" fill="black"/>
  <path d="M1477.95 643.105C1495.28 643.108 1512.11 643.079 1528.95 643.129C1535.59 643.149 1536.8 644.566 1535.14 650.917C1533.17 658.486 1530.8 665.953 1528.69 673.489C1527.8 676.664 1525.96 678.118 1522.57 678.108C1500.24 678.041 1477.91 678.03 1455.58 678.121C1451.12 678.14 1450.03 676.276 1451.14 672.22C1453.25 664.515 1455.28 656.785 1457.18 649.025C1458.21 644.827 1460.48 642.811 1464.96 643.069C1469.11 643.308 1473.28 643.11 1477.95 643.105Z" fill="black"/>
</svg>
